<svg width="24" height="24" viewBox="0 0 24 24" fill="none" xmlns="http://www.w3.org/2000/svg">
<path d="M13.0601 12L17.4801 7.58002C17.5538 7.51136 17.6129 7.42856 17.6539 7.33656C17.6949 7.24456 17.7169 7.14525 17.7187 7.04454C17.7205 6.94384 17.702 6.84381 17.6642 6.75042C17.6265 6.65703 17.5704 6.5722 17.4992 6.50098C17.4279 6.42976 17.3431 6.37362 17.2497 6.3359C17.1563 6.29818 17.0563 6.27965 16.9556 6.28143C16.8549 6.2832 16.7556 6.30525 16.6636 6.34624C16.5716 6.38723 16.4888 6.44633 16.4201 6.52002L12.0001 10.94L7.58012 6.52002C7.43795 6.38754 7.2499 6.31542 7.0556 6.31884C6.8613 6.32227 6.67591 6.40098 6.5385 6.5384C6.40109 6.67581 6.32237 6.8612 6.31895 7.0555C6.31552 7.2498 6.38764 7.43784 6.52012 7.58002L10.9401 12L6.52012 16.42C6.37967 16.5606 6.30078 16.7513 6.30078 16.95C6.30078 17.1488 6.37967 17.3394 6.52012 17.48C6.66075 17.6205 6.85137 17.6994 7.05012 17.6994C7.24887 17.6994 7.4395 17.6205 7.58012 17.48L12.0001 13.06L16.4201 17.48C16.5607 17.6205 16.7514 17.6994 16.9501 17.6994C17.1489 17.6994 17.3395 17.6205 17.4801 17.48C17.6206 17.3394 17.6995 17.1488 17.6995 16.95C17.6995 16.7513 17.6206 16.5606 17.4801 16.42L13.0601 12Z" fill="#1E293B"/>
</svg>
